<?xml version="1.0" standalone="no"?><!DOCTYPE svg PUBLIC "-//W3C//DTD SVG 1.1//EN" "http://www.w3.org/Graphics/SVG/1.1/DTD/svg11.dtd"><svg t="1575723648990" class="icon" viewBox="0 0 1024 1024" version="1.1" xmlns="http://www.w3.org/2000/svg" p-id="4516" data-spm-anchor-id="a313x.7781069.0.i2" xmlns:xlink="http://www.w3.org/1999/xlink" width="120" height="120"><defs><style type="text/css"></style></defs><path d="M701.72245 245.828637s-162.696653 40.05327-190.648146 134.112978c-27.951493 94.059708 107.42585 114.379856 24.790581 191.957666 0 0 71.165674-36.847202 71.165675-85.796181s-67.37258-73.73956-48.316797-120.746836c19.055783-47.097588 143.008687-119.527627 143.008687-119.527627z" fill="#E83418" p-id="4517"></path><path d="M594.2966 68.501477s64.843851 74.371742-34.950655 184.326322-185.590687 106.116329-55.948141 286.017375c0 0-141.11214-93.427526-103.5876-183.69414s234.539666-126.481633 194.486396-286.649557z" fill="#E83418" p-id="4518"></path><path d="M408.073731 545.79918s-88.324911 23.526216-88.324911 38.788905c0 15.262689 223.702253 34.318472 370.549191-7.631345 0 0-102.323235 46.375094-266.284253 46.375094s-251.06672-48.903823-15.940027-77.532654zM371.226529 645.593685s-45.110729 12.056621-45.110729 29.893196c0 17.791419 96.588438 69.269127 331.760286 12.688804 0 0-30.525378-15.894871-35.582837-21.629669 0 0-324.761124 46.42025-251.06672-20.952331zM390.282312 738.389029s-65.476033 55.270803 207.1752 20.320148l45.110729 22.894033s-73.73956 29.215857-163.328835 29.215858-175.385457-38.111567-88.957094-72.430039zM322.27755 804.497244s-81.370904 15.262689-81.370905 33.054108 125.217269 34.950655 275.812145 34.950654 291.074834-26.054946 256.756361-61.637782c0 0 15.894871 6.999162 15.894871 18.423601s-36.847202 64.843851-333.656832 64.84385-266.916435-44.478547-266.916436-44.478546 7.044318-34.363628 133.480796-45.155885z" fill="#06509B" p-id="4519"></path><path d="M303.221767 910.613573s366.710941 52.742073 523.040613-54.63862c0 0 12.056621 62.269965-228.172686 76.900471s-294.867928-22.261851-294.867927-22.261851zM708.08943 552.798342s81.370904-17.159236 81.370904 48.948979-99.162323 105.484147-99.162323 105.484147 136.641707-21.629669 136.641708-110.586762-118.850289-43.846364-118.850289-43.846364z" fill="#06509B" p-id="4520"></path></svg>