<?xml version="1.0" standalone="no"?><!DOCTYPE svg PUBLIC "-//W3C//DTD SVG 1.1//EN" "http://www.w3.org/Graphics/SVG/1.1/DTD/svg11.dtd"><svg t="1575790629228" class="icon" viewBox="0 0 1024 1024" version="1.1" xmlns="http://www.w3.org/2000/svg" p-id="17313" xmlns:xlink="http://www.w3.org/1999/xlink" width="200" height="200"><defs><style type="text/css"></style></defs><path d="M992 1024H800v-32h192V800h32v224h-32z m0-992H800V0h224v224h-32V32zM32 992h192v32H0V800h32v192zM32 0h192v32H32v192H0V0h32z" fill="#BDCDD6" p-id="17314"></path><path d="M224 576h608c35.2 0 64 28.8 64 64v192c0 35.2-28.8 64-64 64H224c-35.2 0-64-28.8-64-64V640c0-35.2 28.8-64 64-64z" fill="#D9EEFF" p-id="17315"></path><path d="M192 192h160c17.6 0 32 14.4 32 32v576c0 17.6-14.4 32-32 32H192c-17.6 0-32-14.4-32-32V224c0-17.6 14.4-32 32-32z" fill="#0E3D80" p-id="17316"></path><path d="M448 192h160c17.6 0 32 14.4 32 32v576c0 17.6-14.4 32-32 32H448c-17.6 0-32-14.4-32-32V224c0-17.6 14.4-32 32-32z" fill="#0090FF" p-id="17317"></path><path d="M704 192h160c17.6 0 32 14.4 32 32v576c0 17.6-14.4 32-32 32H704c-17.6 0-32-14.4-32-32V224c0-17.6 14.4-32 32-32z" fill="#FFC15B" p-id="17318"></path><path d="M208 240h128v64h-128zM720 240h128v64h-128z" fill="#FFFFFF" p-id="17319"></path><path d="M208 336h128v32h-128zM720 336h128v32h-128zM208 400h128v32h-128zM720 400h128v32h-128z" fill="#FFFFFF" p-id="17320"></path><path d="M528 342.4c1.6 0 3.2 0 3.2 1.6L576 384V192h-96v192l44.8-40s1.6-1.6 3.2-1.6z" fill="#73C2FF" p-id="17321"></path></svg>